<svg xmlns="http://www.w3.org/2000/svg" viewBox="0 0 64 64">
  <defs>
    <radialGradient id="glow" cx="50%" cy="45%" r="65%">
      <stop offset="0%" stop-color="#a3ff12" stop-opacity=".85"/>
      <stop offset="45%" stop-color="#6bff5e" stop-opacity=".35"/>
      <stop offset="100%" stop-color="#0a0b0d" stop-opacity="0"/>
    </radialGradient>
    <linearGradient id="stroke" x1="20%" y1="15%" x2="80%" y2="85%">
      <stop offset="0%" stop-color="#a3ff12"/>
      <stop offset="100%" stop-color="#00ffa3"/>
    </linearGradient>
  </defs>
  <rect width="64" height="64" rx="14" fill="#090b0d"/>
  <rect width="64" height="64" rx="14" fill="url(#glow)"/>
  <path d="M32 13c-3.4 0-6.2 2.9-6.2 6.4-.1 0-.2 0-.3 0-5.1 0-9.3 4.5-9.3 10v5.4c-1.9 1.4-3.1 3.7-3.1 6.1 0 4.1 3.2 7.5 7.3 7.5h2.9c.2 1.8 1.8 3.1 3.6 3.1h1.9c2 0 3.7-1.7 3.7-3.8v-2.6h2.2v2.6c0 2.1 1.7 3.8 3.7 3.8h1.9c1.8 0 3.4-1.4 3.6-3.1h2.9c4.1 0 7.3-3.4 7.3-7.5 0-2.4-1.1-4.7-3-6.1V29.4c0-5.5-4.2-10-9.3-10-.1 0-.2 0-.3 0C38.2 15.9 35.4 13 32 13Z" fill="none" stroke="url(#stroke)" stroke-width="2.4" stroke-linecap="round" stroke-linejoin="round"/>
  <path d="M26.4 24.5c1.5-.6 2.3-1.7 2.3-3.1M37.6 24.5c-1.5-.6-2.3-1.7-2.3-3.1M23.5 32c1.5.6 2.3 1.7 2.3 3.1M40.5 32c-1.5.6-2.3 1.7-2.3 3.1M32 28v5M28.5 38.5h7M24.5 43.5h3M36.5 43.5h3" fill="none" stroke="url(#stroke)" stroke-width="2" stroke-linecap="round" stroke-linejoin="round" opacity=".9"/>
</svg>
